<mxfile host="app.diagrams.net" modified="2023-07-15T08:56:43.052Z" agent="Mozilla/5.0 (Windows NT 10.0; Win64; x64) AppleWebKit/537.36 (KHTML, like Gecko) Chrome/113.0.0.0 Safari/537.36 Edg/113.0.1774.57" etag="ldz02NP8TO_4JsjMC4OM" version="21.6.2" type="device" pages="7">
  <diagram name="Page-1" id="--JIbFCNCCRg-Ra6WlN-">
    <mxGraphModel dx="785" dy="1139" grid="1" gridSize="10" guides="1" tooltips="1" connect="1" arrows="1" fold="1" page="1" pageScale="1" pageWidth="850" pageHeight="1100" math="0" shadow="0">
      <root>
        <mxCell id="0" />
        <mxCell id="1" parent="0" />
        <mxCell id="Fht797_aLlEK99HxYjkb-1" value="&lt;font style=&quot;font-size: 36px;&quot;&gt;Single Page Application&lt;/font&gt;" style="rounded=0;whiteSpace=wrap;html=1;fillColor=#ffe6cc;strokeColor=#d79b00;" parent="1" vertex="1">
          <mxGeometry x="110" y="310" width="580" height="90" as="geometry" />
        </mxCell>
        <mxCell id="Fht797_aLlEK99HxYjkb-2" value="" style="rounded=0;whiteSpace=wrap;html=1;fillColor=#f5f5f5;fontColor=#333333;strokeColor=#666666;" parent="1" vertex="1">
          <mxGeometry x="110" y="400" width="580" height="180" as="geometry" />
        </mxCell>
        <mxCell id="Fht797_aLlEK99HxYjkb-4" value="&lt;font style=&quot;font-size: 24px;&quot;&gt;Market&lt;/font&gt;" style="rounded=0;whiteSpace=wrap;html=1;" parent="1" vertex="1">
          <mxGeometry x="130" y="440" width="250" height="100" as="geometry" />
        </mxCell>
        <mxCell id="Fht797_aLlEK99HxYjkb-12" value="&lt;font style=&quot;font-size: 24px;&quot;&gt;Cart&lt;/font&gt;" style="rounded=0;whiteSpace=wrap;html=1;" parent="1" vertex="1">
          <mxGeometry x="410" y="440" width="250" height="100" as="geometry" />
        </mxCell>
        <mxCell id="Fht797_aLlEK99HxYjkb-13" value="Monolithic Single Page Application" style="text;html=1;strokeColor=none;fillColor=none;align=center;verticalAlign=middle;whiteSpace=wrap;rounded=0;" parent="1" vertex="1">
          <mxGeometry x="250" y="590" width="270" height="30" as="geometry" />
        </mxCell>
      </root>
    </mxGraphModel>
  </diagram>
  <diagram id="bLvvdD_WTM3bdU5-brCn" name="Page-2">
    <mxGraphModel dx="924" dy="1340" grid="1" gridSize="10" guides="1" tooltips="1" connect="1" arrows="1" fold="1" page="1" pageScale="1" pageWidth="850" pageHeight="1100" math="0" shadow="0">
      <root>
        <mxCell id="0" />
        <mxCell id="1" parent="0" />
        <mxCell id="ryjcHDXRMsLDlWJCNbZk-1" value="" style="rounded=0;whiteSpace=wrap;html=1;fillColor=#f5f5f5;strokeColor=#666666;fontColor=#333333;" parent="1" vertex="1">
          <mxGeometry x="113" y="350" width="260" height="150" as="geometry" />
        </mxCell>
        <mxCell id="ryjcHDXRMsLDlWJCNbZk-2" value="&lt;b&gt;&lt;font style=&quot;font-size: 22px;&quot;&gt;React Single Page Application&lt;/font&gt;&lt;/b&gt;" style="rounded=0;whiteSpace=wrap;html=1;fillColor=#ffe6cc;strokeColor=#d79b00;" parent="1" vertex="1">
          <mxGeometry x="113" y="290" width="260" height="60" as="geometry" />
        </mxCell>
        <mxCell id="GFTjartdtwCa3VPqbh0O-1" value="&lt;font style=&quot;font-size: 24px;&quot;&gt;Market&lt;/font&gt;" style="rounded=0;whiteSpace=wrap;html=1;" parent="1" vertex="1">
          <mxGeometry x="143" y="380" width="200" height="80" as="geometry" />
        </mxCell>
        <mxCell id="lZiaKlkqVWLmifHFVUMV-1" value="" style="rounded=0;whiteSpace=wrap;html=1;fillColor=#f5f5f5;strokeColor=#666666;fontColor=#333333;" parent="1" vertex="1">
          <mxGeometry x="478" y="350" width="260" height="150" as="geometry" />
        </mxCell>
        <mxCell id="lZiaKlkqVWLmifHFVUMV-2" value="&lt;b&gt;&lt;font style=&quot;font-size: 22px;&quot;&gt;React Single Page Application&lt;/font&gt;&lt;/b&gt;" style="rounded=0;whiteSpace=wrap;html=1;fillColor=#ffe6cc;strokeColor=#d79b00;" parent="1" vertex="1">
          <mxGeometry x="478" y="290" width="260" height="60" as="geometry" />
        </mxCell>
        <mxCell id="lZiaKlkqVWLmifHFVUMV-3" value="&lt;font style=&quot;font-size: 24px;&quot;&gt;Cart&lt;/font&gt;" style="rounded=0;whiteSpace=wrap;html=1;" parent="1" vertex="1">
          <mxGeometry x="508" y="380" width="200" height="80" as="geometry" />
        </mxCell>
        <mxCell id="S316Bm3XXtKbjHkvnMJC-2" style="edgeStyle=orthogonalEdgeStyle;rounded=0;orthogonalLoop=1;jettySize=auto;html=1;entryX=0.5;entryY=0;entryDx=0;entryDy=0;strokeWidth=3;" parent="1" source="S316Bm3XXtKbjHkvnMJC-1" target="ryjcHDXRMsLDlWJCNbZk-2" edge="1">
          <mxGeometry relative="1" as="geometry" />
        </mxCell>
        <mxCell id="S316Bm3XXtKbjHkvnMJC-3" style="edgeStyle=orthogonalEdgeStyle;rounded=0;orthogonalLoop=1;jettySize=auto;html=1;entryX=0.5;entryY=0;entryDx=0;entryDy=0;strokeWidth=3;" parent="1" source="S316Bm3XXtKbjHkvnMJC-1" target="lZiaKlkqVWLmifHFVUMV-2" edge="1">
          <mxGeometry relative="1" as="geometry" />
        </mxCell>
        <mxCell id="S316Bm3XXtKbjHkvnMJC-1" value="&lt;font size=&quot;1&quot; style=&quot;&quot;&gt;&lt;b style=&quot;font-size: 23px;&quot;&gt;Container&lt;/b&gt;&lt;/font&gt;" style="rounded=0;whiteSpace=wrap;html=1;fillColor=#fad9d5;strokeColor=#ae4132;" parent="1" vertex="1">
          <mxGeometry x="285" y="140" width="280" height="80" as="geometry" />
        </mxCell>
      </root>
    </mxGraphModel>
  </diagram>
  <diagram id="acNAJ5-IKj0yj_vd4Acj" name="Page-3">
    <mxGraphModel dx="785" dy="1139" grid="1" gridSize="10" guides="1" tooltips="1" connect="1" arrows="1" fold="1" page="1" pageScale="1" pageWidth="850" pageHeight="1100" math="0" shadow="0">
      <root>
        <mxCell id="0" />
        <mxCell id="1" parent="0" />
        <mxCell id="xewhpXjkvFaPtMYvJp41-12" style="edgeStyle=orthogonalEdgeStyle;rounded=0;orthogonalLoop=1;jettySize=auto;html=1;strokeWidth=3;" parent="1" source="xewhpXjkvFaPtMYvJp41-1" target="xewhpXjkvFaPtMYvJp41-8" edge="1">
          <mxGeometry relative="1" as="geometry">
            <Array as="points">
              <mxPoint x="190" y="430" />
              <mxPoint x="460" y="430" />
            </Array>
          </mxGeometry>
        </mxCell>
        <mxCell id="xewhpXjkvFaPtMYvJp41-14" style="edgeStyle=orthogonalEdgeStyle;rounded=0;orthogonalLoop=1;jettySize=auto;html=1;strokeWidth=3;" parent="1" source="xewhpXjkvFaPtMYvJp41-1" edge="1">
          <mxGeometry relative="1" as="geometry">
            <mxPoint x="240" y="470" as="targetPoint" />
          </mxGeometry>
        </mxCell>
        <mxCell id="xewhpXjkvFaPtMYvJp41-16" style="edgeStyle=orthogonalEdgeStyle;rounded=0;orthogonalLoop=1;jettySize=auto;html=1;exitX=1;exitY=0.5;exitDx=0;exitDy=0;entryX=0;entryY=0.5;entryDx=0;entryDy=0;fillColor=#f8cecc;strokeColor=#b85450;strokeWidth=5;endArrow=cross;endFill=0;" parent="1" source="xewhpXjkvFaPtMYvJp41-1" target="xewhpXjkvFaPtMYvJp41-4" edge="1">
          <mxGeometry relative="1" as="geometry" />
        </mxCell>
        <mxCell id="xewhpXjkvFaPtMYvJp41-1" value="" style="rounded=0;whiteSpace=wrap;html=1;fillColor=#f5f5f5;strokeColor=#666666;fontColor=#333333;" parent="1" vertex="1">
          <mxGeometry x="60" y="240" width="260" height="150" as="geometry" />
        </mxCell>
        <mxCell id="xewhpXjkvFaPtMYvJp41-2" value="&lt;b&gt;&lt;font style=&quot;font-size: 22px;&quot;&gt;React Single Page Application&lt;/font&gt;&lt;/b&gt;" style="rounded=0;whiteSpace=wrap;html=1;fillColor=#ffe6cc;strokeColor=#d79b00;" parent="1" vertex="1">
          <mxGeometry x="60" y="180" width="260" height="60" as="geometry" />
        </mxCell>
        <mxCell id="xewhpXjkvFaPtMYvJp41-3" value="&lt;font style=&quot;font-size: 24px;&quot;&gt;Market&lt;/font&gt;" style="rounded=0;whiteSpace=wrap;html=1;" parent="1" vertex="1">
          <mxGeometry x="90" y="270" width="200" height="80" as="geometry" />
        </mxCell>
        <mxCell id="xewhpXjkvFaPtMYvJp41-15" style="edgeStyle=orthogonalEdgeStyle;rounded=0;orthogonalLoop=1;jettySize=auto;html=1;entryX=0.642;entryY=0;entryDx=0;entryDy=0;entryPerimeter=0;strokeWidth=3;" parent="1" source="xewhpXjkvFaPtMYvJp41-4" target="xewhpXjkvFaPtMYvJp41-8" edge="1">
          <mxGeometry relative="1" as="geometry" />
        </mxCell>
        <mxCell id="xewhpXjkvFaPtMYvJp41-4" value="" style="rounded=0;whiteSpace=wrap;html=1;fillColor=#f5f5f5;strokeColor=#666666;fontColor=#333333;" parent="1" vertex="1">
          <mxGeometry x="425" y="240" width="260" height="150" as="geometry" />
        </mxCell>
        <mxCell id="xewhpXjkvFaPtMYvJp41-5" value="&lt;b&gt;&lt;font style=&quot;font-size: 22px;&quot;&gt;React Single Page Application&lt;/font&gt;&lt;/b&gt;" style="rounded=0;whiteSpace=wrap;html=1;fillColor=#ffe6cc;strokeColor=#d79b00;" parent="1" vertex="1">
          <mxGeometry x="425" y="180" width="260" height="60" as="geometry" />
        </mxCell>
        <mxCell id="xewhpXjkvFaPtMYvJp41-6" value="&lt;font style=&quot;font-size: 24px;&quot;&gt;Cart&lt;/font&gt;" style="rounded=0;whiteSpace=wrap;html=1;" parent="1" vertex="1">
          <mxGeometry x="455" y="270" width="200" height="80" as="geometry" />
        </mxCell>
        <mxCell id="xewhpXjkvFaPtMYvJp41-7" value="&lt;font style=&quot;font-size: 18px;&quot;&gt;&lt;b&gt;API to Get Products&lt;/b&gt;&lt;/font&gt;" style="rounded=0;whiteSpace=wrap;html=1;fillColor=#fff2cc;strokeColor=#d6b656;" parent="1" vertex="1">
          <mxGeometry x="120" y="470" width="240" height="80" as="geometry" />
        </mxCell>
        <mxCell id="xewhpXjkvFaPtMYvJp41-8" value="&lt;font size=&quot;1&quot; style=&quot;&quot;&gt;&lt;b style=&quot;font-size: 18px;&quot;&gt;API for Managing Cart&lt;/b&gt;&lt;/font&gt;" style="rounded=0;whiteSpace=wrap;html=1;fillColor=#fff2cc;strokeColor=#d6b656;" parent="1" vertex="1">
          <mxGeometry x="400" y="470" width="240" height="80" as="geometry" />
        </mxCell>
      </root>
    </mxGraphModel>
  </diagram>
  <diagram id="0IOE6PRN7DPEpsZzGV7t" name="Page-4">
    <mxGraphModel dx="785" dy="1139" grid="1" gridSize="10" guides="1" tooltips="1" connect="1" arrows="1" fold="1" page="1" pageScale="1" pageWidth="850" pageHeight="1100" math="0" shadow="0">
      <root>
        <mxCell id="0" />
        <mxCell id="1" parent="0" />
        <mxCell id="zOkcD0dEAVJurSwZPRy9-1" value="&lt;b&gt;&lt;font style=&quot;font-size: 20px;&quot;&gt;Build-Time Integration&lt;/font&gt;&lt;/b&gt;" style="rounded=0;whiteSpace=wrap;html=1;fillColor=#d0cee2;strokeColor=#56517e;" parent="1" vertex="1">
          <mxGeometry x="80" y="40" width="680" height="80" as="geometry" />
        </mxCell>
        <mxCell id="zOkcD0dEAVJurSwZPRy9-2" value="" style="endArrow=classic;html=1;rounded=0;" parent="1" edge="1">
          <mxGeometry width="50" height="50" relative="1" as="geometry">
            <mxPoint x="80" y="140" as="sourcePoint" />
            <mxPoint x="80" y="570" as="targetPoint" />
          </mxGeometry>
        </mxCell>
        <mxCell id="zOkcD0dEAVJurSwZPRy9-4" value="&lt;b&gt;&lt;font style=&quot;font-size: 14px;&quot;&gt;Time&lt;/font&gt;&lt;/b&gt;" style="text;html=1;strokeColor=none;fillColor=none;align=center;verticalAlign=middle;whiteSpace=wrap;rounded=0;" parent="1" vertex="1">
          <mxGeometry x="20" y="140" width="60" height="30" as="geometry" />
        </mxCell>
        <mxCell id="zOkcD0dEAVJurSwZPRy9-5" value="&lt;font style=&quot;font-size: 15px;&quot;&gt;&lt;b&gt;One team develops Market&lt;/b&gt;&lt;/font&gt;" style="rounded=1;whiteSpace=wrap;html=1;fillColor=#f9f7ed;strokeColor=#36393d;" parent="1" vertex="1">
          <mxGeometry x="90" y="140" width="370" height="60" as="geometry" />
        </mxCell>
        <mxCell id="zOkcD0dEAVJurSwZPRy9-6" value="&lt;font style=&quot;font-size: 15px;&quot;&gt;&lt;b&gt;They deploy the application.&lt;/b&gt;&lt;/font&gt;" style="rounded=1;whiteSpace=wrap;html=1;fillColor=#f9f7ed;strokeColor=#36393d;" parent="1" vertex="1">
          <mxGeometry x="90" y="210" width="370" height="60" as="geometry" />
        </mxCell>
        <mxCell id="zOkcD0dEAVJurSwZPRy9-7" value="&lt;b&gt;&lt;font style=&quot;font-size: 19px;&quot;&gt;They Publish it as an NPM Package&lt;/font&gt;&lt;/b&gt;" style="rounded=1;whiteSpace=wrap;html=1;fillColor=#f9f7ed;strokeColor=#36393d;" parent="1" vertex="1">
          <mxGeometry x="90" y="300" width="370" height="60" as="geometry" />
        </mxCell>
        <mxCell id="zOkcD0dEAVJurSwZPRy9-8" value="NPM" style="rounded=0;whiteSpace=wrap;html=1;fillColor=#eeeeee;strokeColor=#36393d;" parent="1" vertex="1">
          <mxGeometry x="560" y="240" width="200" height="30" as="geometry" />
        </mxCell>
        <mxCell id="zOkcD0dEAVJurSwZPRy9-15" style="edgeStyle=orthogonalEdgeStyle;rounded=0;orthogonalLoop=1;jettySize=auto;html=1;exitX=0;exitY=0.75;exitDx=0;exitDy=0;entryX=1.003;entryY=0.628;entryDx=0;entryDy=0;entryPerimeter=0;strokeWidth=2;" parent="1" source="zOkcD0dEAVJurSwZPRy9-9" target="zOkcD0dEAVJurSwZPRy9-7" edge="1">
          <mxGeometry relative="1" as="geometry" />
        </mxCell>
        <mxCell id="zOkcD0dEAVJurSwZPRy9-9" value="" style="rounded=0;whiteSpace=wrap;html=1;fillColor=#eeeeee;strokeColor=#36393d;" parent="1" vertex="1">
          <mxGeometry x="560" y="270" width="200" height="60" as="geometry" />
        </mxCell>
        <mxCell id="zOkcD0dEAVJurSwZPRy9-10" value="Market" style="rounded=0;whiteSpace=wrap;html=1;fillColor=#f9f7ed;strokeColor=#36393d;" parent="1" vertex="1">
          <mxGeometry x="600" y="285" width="120" height="30" as="geometry" />
        </mxCell>
        <mxCell id="zOkcD0dEAVJurSwZPRy9-11" value="" style="endArrow=classic;html=1;rounded=0;entryX=-0.011;entryY=0.169;entryDx=0;entryDy=0;entryPerimeter=0;strokeWidth=2;" parent="1" target="zOkcD0dEAVJurSwZPRy9-9" edge="1">
          <mxGeometry width="50" height="50" relative="1" as="geometry">
            <mxPoint x="460" y="240" as="sourcePoint" />
            <mxPoint x="510" y="190" as="targetPoint" />
            <Array as="points">
              <mxPoint x="520" y="240" />
              <mxPoint x="520" y="280" />
            </Array>
          </mxGeometry>
        </mxCell>
        <mxCell id="zOkcD0dEAVJurSwZPRy9-16" value="&lt;font style=&quot;font-size: 15px;&quot;&gt;&lt;b&gt;Team working on container installs Market as a dependency&lt;/b&gt;&lt;/font&gt;" style="rounded=1;whiteSpace=wrap;html=1;fillColor=#f9f7ed;strokeColor=#36393d;" parent="1" vertex="1">
          <mxGeometry x="90" y="370" width="370" height="60" as="geometry" />
        </mxCell>
        <mxCell id="zOkcD0dEAVJurSwZPRy9-17" value="&lt;font style=&quot;font-size: 15px;&quot;&gt;&lt;b&gt;Container team builds their app&lt;/b&gt;&lt;/font&gt;" style="rounded=1;whiteSpace=wrap;html=1;fillColor=#f9f7ed;strokeColor=#36393d;" parent="1" vertex="1">
          <mxGeometry x="90" y="440" width="370" height="60" as="geometry" />
        </mxCell>
        <mxCell id="zOkcD0dEAVJurSwZPRy9-18" value="&lt;span style=&quot;font-size: 15px;&quot;&gt;&lt;b&gt;Output bundle which includes all the code for Market&lt;/b&gt;&lt;/span&gt;" style="rounded=1;whiteSpace=wrap;html=1;fillColor=#f9f7ed;strokeColor=#36393d;" parent="1" vertex="1">
          <mxGeometry x="90" y="510" width="370" height="60" as="geometry" />
        </mxCell>
      </root>
    </mxGraphModel>
  </diagram>
  <diagram id="bYWh9Oj-rlXxphHQcJ2w" name="Page-5">
    <mxGraphModel dx="785" dy="1139" grid="1" gridSize="10" guides="1" tooltips="1" connect="1" arrows="1" fold="1" page="1" pageScale="1" pageWidth="850" pageHeight="1100" math="0" shadow="0">
      <root>
        <mxCell id="0" />
        <mxCell id="1" parent="0" />
        <mxCell id="Lpja1zrPFiL2sX5VOkGl-1" value="&lt;span style=&quot;font-size: 20px;&quot;&gt;&lt;b&gt;Run-Time Integration&lt;/b&gt;&lt;/span&gt;" style="rounded=0;whiteSpace=wrap;html=1;fillColor=#d0cee2;strokeColor=#56517e;" parent="1" vertex="1">
          <mxGeometry x="80" y="40" width="680" height="80" as="geometry" />
        </mxCell>
        <mxCell id="8cHU3OSHqpMQr5M2sj5k-1" value="" style="endArrow=classic;html=1;rounded=0;" parent="1" edge="1">
          <mxGeometry width="50" height="50" relative="1" as="geometry">
            <mxPoint x="80" y="140" as="sourcePoint" />
            <mxPoint x="80" y="480" as="targetPoint" />
          </mxGeometry>
        </mxCell>
        <mxCell id="8cHU3OSHqpMQr5M2sj5k-2" value="&lt;b&gt;&lt;font style=&quot;font-size: 14px;&quot;&gt;Time&lt;/font&gt;&lt;/b&gt;" style="text;html=1;strokeColor=none;fillColor=none;align=center;verticalAlign=middle;whiteSpace=wrap;rounded=0;" parent="1" vertex="1">
          <mxGeometry x="20" y="140" width="60" height="30" as="geometry" />
        </mxCell>
        <mxCell id="RHB6bysy3-sl2wqoUqto-1" value="&lt;font style=&quot;font-size: 15px;&quot;&gt;&lt;b&gt;One team develops Market&lt;/b&gt;&lt;/font&gt;" style="rounded=1;whiteSpace=wrap;html=1;fillColor=#f9f7ed;strokeColor=#36393d;" parent="1" vertex="1">
          <mxGeometry x="90" y="140" width="670" height="60" as="geometry" />
        </mxCell>
        <mxCell id="RHB6bysy3-sl2wqoUqto-2" value="&lt;font style=&quot;font-size: 15px;&quot;&gt;&lt;b&gt;They deploy the app&lt;/b&gt;&lt;/font&gt;" style="rounded=1;whiteSpace=wrap;html=1;fillColor=#f9f7ed;strokeColor=#36393d;" parent="1" vertex="1">
          <mxGeometry x="90" y="210" width="670" height="60" as="geometry" />
        </mxCell>
        <mxCell id="8BXQ6Em0JNOWvq86Qg1X-1" value="&lt;font style=&quot;font-size: 15px;&quot;&gt;&lt;b&gt;Market Code deployed at https://somewhereinnet.com/market.js&lt;/b&gt;&lt;/font&gt;" style="rounded=1;whiteSpace=wrap;html=1;fillColor=#f9f7ed;strokeColor=#36393d;" parent="1" vertex="1">
          <mxGeometry x="90" y="280" width="670" height="60" as="geometry" />
        </mxCell>
        <mxCell id="8BXQ6Em0JNOWvq86Qg1X-2" value="&lt;font style=&quot;font-size: 15px;&quot;&gt;&lt;b&gt;User navigates to https://somewhereinnet.com, Container app is loaded&lt;/b&gt;&lt;/font&gt;" style="rounded=1;whiteSpace=wrap;html=1;fillColor=#f9f7ed;strokeColor=#36393d;" parent="1" vertex="1">
          <mxGeometry x="90" y="350" width="670" height="60" as="geometry" />
        </mxCell>
        <mxCell id="8BXQ6Em0JNOWvq86Qg1X-3" value="&lt;span style=&quot;font-size: 15px;&quot;&gt;&lt;b&gt;Container app fetches market.js and execute it&lt;/b&gt;&lt;/span&gt;" style="rounded=1;whiteSpace=wrap;html=1;fillColor=#f9f7ed;strokeColor=#36393d;" parent="1" vertex="1">
          <mxGeometry x="90" y="420" width="670" height="60" as="geometry" />
        </mxCell>
      </root>
    </mxGraphModel>
  </diagram>
  <diagram id="kazaH44x20B2akhy_dxe" name="Page-6">
    <mxGraphModel dx="843" dy="786" grid="1" gridSize="10" guides="1" tooltips="1" connect="1" arrows="1" fold="1" page="1" pageScale="1" pageWidth="850" pageHeight="1100" math="0" shadow="0">
      <root>
        <mxCell id="0" />
        <mxCell id="1" parent="0" />
        <mxCell id="XVSDvqvXs4DGub_oEqXb-1" value="" style="rounded=0;whiteSpace=wrap;html=1;fillColor=#f5f5f5;strokeColor=#666666;fontColor=#333333;" vertex="1" parent="1">
          <mxGeometry x="113" y="350" width="260" height="150" as="geometry" />
        </mxCell>
        <mxCell id="XVSDvqvXs4DGub_oEqXb-2" value="&lt;b&gt;&lt;font style=&quot;font-size: 22px;&quot;&gt;Remote1&lt;/font&gt;&lt;/b&gt;" style="rounded=0;whiteSpace=wrap;html=1;fillColor=#ffe6cc;strokeColor=#d79b00;" vertex="1" parent="1">
          <mxGeometry x="113" y="290" width="260" height="60" as="geometry" />
        </mxCell>
        <mxCell id="XVSDvqvXs4DGub_oEqXb-3" value="&lt;font style=&quot;font-size: 24px;&quot;&gt;Content&lt;/font&gt;" style="rounded=0;whiteSpace=wrap;html=1;" vertex="1" parent="1">
          <mxGeometry x="143" y="380" width="200" height="80" as="geometry" />
        </mxCell>
        <mxCell id="XVSDvqvXs4DGub_oEqXb-4" value="" style="rounded=0;whiteSpace=wrap;html=1;fillColor=#f5f5f5;strokeColor=#666666;fontColor=#333333;" vertex="1" parent="1">
          <mxGeometry x="478" y="350" width="260" height="150" as="geometry" />
        </mxCell>
        <mxCell id="XVSDvqvXs4DGub_oEqXb-5" value="&lt;b&gt;&lt;font style=&quot;font-size: 22px;&quot;&gt;Remote2&lt;/font&gt;&lt;/b&gt;" style="rounded=0;whiteSpace=wrap;html=1;fillColor=#ffe6cc;strokeColor=#d79b00;" vertex="1" parent="1">
          <mxGeometry x="478" y="290" width="260" height="60" as="geometry" />
        </mxCell>
        <mxCell id="XVSDvqvXs4DGub_oEqXb-6" value="&lt;font style=&quot;font-size: 24px;&quot;&gt;Image&lt;/font&gt;" style="rounded=0;whiteSpace=wrap;html=1;" vertex="1" parent="1">
          <mxGeometry x="508" y="380" width="200" height="80" as="geometry" />
        </mxCell>
        <mxCell id="XVSDvqvXs4DGub_oEqXb-7" style="edgeStyle=orthogonalEdgeStyle;rounded=0;orthogonalLoop=1;jettySize=auto;html=1;entryX=0.5;entryY=0;entryDx=0;entryDy=0;strokeWidth=3;" edge="1" parent="1" source="XVSDvqvXs4DGub_oEqXb-9" target="XVSDvqvXs4DGub_oEqXb-2">
          <mxGeometry relative="1" as="geometry" />
        </mxCell>
        <mxCell id="XVSDvqvXs4DGub_oEqXb-8" style="edgeStyle=orthogonalEdgeStyle;rounded=0;orthogonalLoop=1;jettySize=auto;html=1;entryX=0.5;entryY=0;entryDx=0;entryDy=0;strokeWidth=3;" edge="1" parent="1" source="XVSDvqvXs4DGub_oEqXb-9" target="XVSDvqvXs4DGub_oEqXb-5">
          <mxGeometry relative="1" as="geometry" />
        </mxCell>
        <mxCell id="XVSDvqvXs4DGub_oEqXb-9" value="&lt;span style=&quot;font-size: 23px;&quot;&gt;&lt;b&gt;Shell with ssr server&lt;/b&gt;&lt;/span&gt;" style="rounded=0;whiteSpace=wrap;html=1;fillColor=#fad9d5;strokeColor=#ae4132;" vertex="1" parent="1">
          <mxGeometry x="285" y="140" width="280" height="80" as="geometry" />
        </mxCell>
      </root>
    </mxGraphModel>
  </diagram>
  <diagram id="FbbVyqXXMI68OqEA78JC" name="Page-7">
    <mxGraphModel dx="1019" dy="949" grid="1" gridSize="10" guides="1" tooltips="1" connect="1" arrows="1" fold="1" page="1" pageScale="1" pageWidth="850" pageHeight="1100" math="0" shadow="0">
      <root>
        <mxCell id="0" />
        <mxCell id="1" parent="0" />
        <mxCell id="lZ4o6t8GtqZ0C_vP2dzb-4" value="" style="rounded=0;whiteSpace=wrap;html=1;fillColor=#f5f5f5;strokeColor=#666666;fontColor=#333333;" vertex="1" parent="1">
          <mxGeometry x="478" y="350" width="260" height="150" as="geometry" />
        </mxCell>
        <mxCell id="lZ4o6t8GtqZ0C_vP2dzb-5" value="&lt;b&gt;&lt;font style=&quot;font-size: 22px;&quot;&gt;Main Application&lt;/font&gt;&lt;/b&gt;" style="rounded=0;whiteSpace=wrap;html=1;fillColor=#ffe6cc;strokeColor=#d79b00;" vertex="1" parent="1">
          <mxGeometry x="478" y="290" width="260" height="60" as="geometry" />
        </mxCell>
        <mxCell id="lZ4o6t8GtqZ0C_vP2dzb-6" value="&lt;font style=&quot;font-size: 24px;&quot;&gt;Page&lt;/font&gt;" style="rounded=0;whiteSpace=wrap;html=1;" vertex="1" parent="1">
          <mxGeometry x="508" y="380" width="200" height="80" as="geometry" />
        </mxCell>
        <mxCell id="lZ4o6t8GtqZ0C_vP2dzb-8" style="edgeStyle=orthogonalEdgeStyle;rounded=0;orthogonalLoop=1;jettySize=auto;html=1;entryX=0.5;entryY=0;entryDx=0;entryDy=0;strokeWidth=3;" edge="1" parent="1" source="lZ4o6t8GtqZ0C_vP2dzb-9" target="lZ4o6t8GtqZ0C_vP2dzb-5">
          <mxGeometry relative="1" as="geometry" />
        </mxCell>
        <mxCell id="lZ4o6t8GtqZ0C_vP2dzb-9" value="&lt;span style=&quot;font-size: 23px;&quot;&gt;&lt;b&gt;Shell with ssr server&lt;/b&gt;&lt;/span&gt;" style="rounded=0;whiteSpace=wrap;html=1;fillColor=#fad9d5;strokeColor=#ae4132;" vertex="1" parent="1">
          <mxGeometry x="468" y="110" width="280" height="80" as="geometry" />
        </mxCell>
        <mxCell id="lZ4o6t8GtqZ0C_vP2dzb-10" value="&lt;b&gt;&lt;font style=&quot;font-size: 32px;&quot;&gt;API&lt;/font&gt;&lt;/b&gt;" style="ellipse;shape=cloud;whiteSpace=wrap;html=1;fillColor=#dae8fc;strokeColor=#6c8ebf;" vertex="1" parent="1">
          <mxGeometry x="10" y="190" width="300" height="200" as="geometry" />
        </mxCell>
        <mxCell id="lZ4o6t8GtqZ0C_vP2dzb-11" value="" style="endArrow=classic;startArrow=classic;html=1;rounded=0;entryX=0;entryY=0.5;entryDx=0;entryDy=0;exitX=0.88;exitY=0.25;exitDx=0;exitDy=0;exitPerimeter=0;strokeWidth=2;" edge="1" parent="1" source="lZ4o6t8GtqZ0C_vP2dzb-10" target="lZ4o6t8GtqZ0C_vP2dzb-9">
          <mxGeometry width="50" height="50" relative="1" as="geometry">
            <mxPoint x="410" y="210" as="sourcePoint" />
            <mxPoint x="460" y="160" as="targetPoint" />
          </mxGeometry>
        </mxCell>
        <mxCell id="lZ4o6t8GtqZ0C_vP2dzb-12" value="" style="endArrow=classic;startArrow=classic;html=1;rounded=0;entryX=0;entryY=0.5;entryDx=0;entryDy=0;exitX=0.956;exitY=0.759;exitDx=0;exitDy=0;exitPerimeter=0;strokeWidth=2;" edge="1" parent="1" source="lZ4o6t8GtqZ0C_vP2dzb-10" target="lZ4o6t8GtqZ0C_vP2dzb-4">
          <mxGeometry width="50" height="50" relative="1" as="geometry">
            <mxPoint x="400" y="450" as="sourcePoint" />
            <mxPoint x="450" y="400" as="targetPoint" />
          </mxGeometry>
        </mxCell>
        <mxCell id="lZ4o6t8GtqZ0C_vP2dzb-13" value="Get meta headers" style="text;html=1;strokeColor=none;fillColor=none;align=center;verticalAlign=middle;whiteSpace=wrap;rounded=0;rotation=-25;" vertex="1" parent="1">
          <mxGeometry x="320" y="170" width="100" height="30" as="geometry" />
        </mxCell>
        <mxCell id="lZ4o6t8GtqZ0C_vP2dzb-14" value="Get page details" style="text;html=1;strokeColor=none;fillColor=none;align=center;verticalAlign=middle;whiteSpace=wrap;rounded=0;rotation=25;" vertex="1" parent="1">
          <mxGeometry x="340" y="360" width="100" height="30" as="geometry" />
        </mxCell>
      </root>
    </mxGraphModel>
  </diagram>
</mxfile>
